s<svg width="30" height="30" viewBox="0 0 30 30" fill="none" xmlns="http://www.w3.org/2000/svg">
<path fill-rule="evenodd" clip-rule="evenodd" d="M29.5118 2.84518C30.1627 2.1943 30.1627 1.13903 29.5118 0.488155C28.8609 -0.162719 27.8057 -0.162718 27.1548 0.488156L15 12.643L2.84518 0.488156C2.19431 -0.162718 1.13903 -0.162719 0.488156 0.488155C-0.162718 1.13903 -0.162719 2.1943 0.488155 2.84518L12.643 15L0.488155 27.1548C-0.162719 27.8057 -0.162718 28.861 0.488156 29.5118C1.13903 30.1627 2.19431 30.1627 2.84518 29.5118L15 17.357L27.1548 29.5118C27.8057 30.1627 28.8609 30.1627 29.5118 29.5118C30.1627 28.861 30.1627 27.8057 29.5118 27.1548L17.357 15L29.5118 2.84518Z" fill="white"/>
</svg>
