<svg width="16" height="16" viewBox="0 0 16 16" fill="none" xmlns="http://www.w3.org/2000/svg">
    <g clip-path="url(#clip0)">
        <path d="M11.3164 10.604L16 15.0238V7.51538C14.9025 8.23902 12.2018 10.0201 11.3164 10.604Z" fill="#C2C3CF"/>
        <path d="M0 7.51538V15.0238L4.68361 10.604C0.703121 7.97891 2.12618 8.91729 0 7.51538Z" fill="#C2C3CF"/>
        <path d="M8.25916 12.6203C8.10132 12.7241 7.89869 12.7241 7.74088 12.6203L5.49053 11.1364L0.713745 15.6444H15.2863L10.5095 11.1364L8.25916 12.6203Z" fill="#C2C3CF"/>
        <path d="M1.68877 5.46959L0.383667 6.64104C1.25598 7.21619 0.95951 7.02077 1.68877 7.50128C1.68877 7.29833 1.68877 5.71404 1.68877 5.46959Z" fill="#C2C3CF"/>
        <path d="M8.19966 0.4274C8.08374 0.331776 7.91627 0.331776 7.80035 0.4274L6.35797 1.61736H9.64204L8.19966 0.4274Z" fill="#C2C3CF"/>
        <path d="M14.3112 5.46959V7.50128C15.0387 7.02197 14.7435 7.21654 15.6163 6.64104L14.3112 5.46959Z" fill="#C2C3CF"/>
        <path d="M13.37 8.12245V2.87226C13.37 2.69899 13.2296 2.55853 13.0563 2.55853H2.94367C2.7704 2.55853 2.62994 2.69899 2.62994 2.87226V8.12245L7.99998 11.6638L13.37 8.12245ZM6.98758 5.91194C6.72782 5.91194 6.517 5.70112 6.517 5.44136C6.517 4.60776 7.20224 3.93861 8.03543 3.95869C8.82821 3.97751 9.46382 4.61312 9.48233 5.40559C9.49691 6.00929 9.21139 6.33039 8.87935 6.64104C8.62492 6.87511 8.47056 7.19562 8.47056 7.56904C8.47056 7.82774 8.26103 8.03963 7.99998 8.03963C7.73936 8.03963 7.52939 7.82815 7.52939 7.56904C7.52939 6.19929 8.55401 5.94614 8.54147 5.42787C8.53488 5.14332 8.2977 4.90645 8.01315 4.89987C7.70881 4.89268 7.45817 5.13626 7.45817 5.44136C7.45817 5.70009 7.24904 5.91194 6.98758 5.91194ZM7.5297 9.21171C7.52939 9.207 7.52939 9.20198 7.52939 9.19728V8.887C7.52939 8.62724 7.74021 8.41642 7.99998 8.41642C8.25974 8.41642 8.47056 8.62724 8.47056 8.887V9.19728C8.47056 9.20198 8.47056 9.207 8.47025 9.21171C8.46272 9.46489 8.25503 9.66787 7.99998 9.66787C7.74492 9.66787 7.53723 9.46489 7.5297 9.21171Z" fill="#C2C3CF"/>
    </g>
    <defs>
        <clipPath id="clip0">
            <rect width="16" height="16" fill="white"/>
        </clipPath>
    </defs>
</svg>