<svg width="16" height="16" viewBox="0 0 16 16" fill="none" xmlns="http://www.w3.org/2000/svg">
<path fill-rule="evenodd" clip-rule="evenodd" d="M6.46116 3.14121C5.97503 3.5232 6.43411 4.13379 7.05236 4.13379H8.58949C9.20775 4.13379 9.66682 3.5232 9.18069 3.14121C8.90868 2.92747 8.5657 2.8 8.19293 2.8H7.44892C7.07615 2.8 6.73317 2.92747 6.46116 3.14121ZM11.4106 3.29854C11.5668 3.75502 11.9551 4.13379 12.4376 4.13379C13.4462 4.13379 14.297 4.88486 14.4221 5.88572L14.6262 7.51838C14.7497 8.506 14.1281 9.4341 13.1679 9.69598L12.4472 9.89254L8.8734 10.8672C8.57193 10.9494 8.26322 10.9957 7.95362 11.006C7.55558 11.0192 7.15605 10.9729 6.76846 10.8672L6.76843 10.8672L3.19464 9.89254L2.4739 9.69598C1.51367 9.4341 0.89213 8.506 1.01558 7.51838L1.21967 5.88572C1.34477 4.88486 2.19558 4.13379 3.20422 4.13379C3.68672 4.13379 4.07507 3.75499 4.23132 3.29848C4.68896 1.96134 5.95667 1 7.44892 1H8.19293C9.6852 1 10.9529 1.96136 11.4106 3.29854ZM2.07926 11.1431L6.37379 12.3144C7.32125 12.5728 8.32062 12.5728 9.26808 12.3144L13.5626 11.1431C13.8121 11.0751 14.0937 11.1739 14.1519 11.426C14.1854 11.5712 14.2031 11.7224 14.2031 11.8778V12.3454C14.2031 13.4499 13.3077 14.3454 12.2031 14.3454H3.43866C2.33409 14.3454 1.43866 13.4499 1.43866 12.3454V11.8778C1.43866 11.7224 1.45638 11.5712 1.4899 11.426C1.54811 11.1739 1.82969 11.0751 2.07926 11.1431Z" fill="#C2C3CF"/>
</svg>
