<svg width="15" height="13" viewBox="0 0 15 13" fill="none" xmlns="http://www.w3.org/2000/svg">
<path fill-rule="evenodd" clip-rule="evenodd" d="M0.766602 1.66672C0.766602 1.16967 1.16955 0.766724 1.6666 0.766724H2.99993C3.40579 0.766724 3.76143 1.03836 3.86822 1.42992L4.24484 2.81084L13.7258 3.43534C14.1988 3.4665 14.5666 3.8593 14.5666 4.33339V8.33339C14.5666 8.80367 14.2045 9.19467 13.7356 9.23074L5.06896 9.89741C4.63854 9.93051 4.24523 9.65334 4.13165 9.23686L2.6771 3.90353L2.31252 2.56672H1.6666C1.16955 2.56672 0.766602 2.16378 0.766602 1.66672ZM6.53973 4.78177C6.41918 4.29956 5.93053 4.00637 5.44832 4.12693C4.9661 4.24748 4.67292 4.73612 4.79347 5.21834L5.46014 7.88501C5.58069 8.36722 6.06933 8.66041 6.55155 8.53985C7.03377 8.4193 7.32695 7.93066 7.2064 7.44844L6.53973 4.78177ZM8.53932 4.27577C9.03138 4.20547 9.48726 4.54738 9.55756 5.03944L9.89089 7.37278C9.96118 7.86484 9.61927 8.32072 9.12721 8.39101C8.63515 8.46131 8.17927 8.1194 8.10898 7.62734L7.77565 5.294C7.70535 4.80194 8.04726 4.34606 8.53932 4.27577ZM12.5666 5.33339C12.5666 4.83633 12.1637 4.43339 11.6666 4.43339C11.1695 4.43339 10.7666 4.83633 10.7666 5.33339V7.33339C10.7666 7.83045 11.1695 8.23339 11.6666 8.23339C12.1637 8.23339 12.5666 7.83045 12.5666 7.33339V5.33339ZM7.6666 11.6667C7.6666 12.4031 7.06965 13.0001 6.33327 13.0001C5.59689 13.0001 4.99994 12.4031 4.99994 11.6667C4.99994 10.9303 5.59689 10.3334 6.33327 10.3334C7.06965 10.3334 7.6666 10.9303 7.6666 11.6667ZM11.6666 13.0001C12.403 13.0001 12.9999 12.4031 12.9999 11.6667C12.9999 10.9303 12.403 10.3334 11.6666 10.3334C10.9302 10.3334 10.3333 10.9303 10.3333 11.6667C10.3333 12.4031 10.9302 13.0001 11.6666 13.0001Z" fill="#C2C3CF"/>
</svg>
