<svg width="16" height="16" viewBox="0 0 16 16" fill="none" xmlns="http://www.w3.org/2000/svg">
    <g clip-path="url(#clip0)">
        <path d="M8.4696 0C7.43551 0 6.56335 0.872155 6.56335 1.90625C6.56335 2.94034 7.43551 3.81249 8.4696 3.81249C9.50369 3.81249 10.3446 2.94034 10.3446 1.90625C10.3446 0.872155 9.50369 0 8.4696 0Z" fill="#C2C3CF"/>
        <path d="M12.8437 0C11.8097 0 10.9375 0.872155 10.9375 1.90625C10.9375 2.94034 11.8097 3.81249 12.8437 3.81249C13.8778 3.81249 14.7187 2.94034 14.7187 1.90625C14.7187 0.872155 13.8778 0 12.8437 0Z" fill="#C2C3CF"/>
        <path d="M10.5506 3.81249C10.0354 4.38371 9.2976 4.74999 8.4696 4.74999C7.6416 4.74999 6.87251 4.38371 6.35735 3.81249C5.9076 4.31121 5.62585 4.96455 5.62585 5.68749V6.15624C5.62585 6.41533 5.83551 6.62499 6.0946 6.62499H10.8133C11.0724 6.62499 11.2821 6.41533 11.2821 6.15624V5.68749C11.2821 4.96455 11.0003 4.31121 10.5506 3.81249Z" fill="#C2C3CF"/>
        <path d="M14.9247 3.81249C14.4096 4.38371 13.6717 4.74999 12.8437 4.74999C12.0157 4.74999 11.2467 4.38371 10.7315 3.81249C10.2817 4.31121 10 4.96455 10 5.68749V6.15624C10 6.41533 10.2097 6.62499 10.4687 6.62499H15.1875C15.4466 6.62499 15.6562 6.41533 15.6562 6.15624V5.68749C15.6562 4.96455 15.3745 4.31121 14.9247 3.81249Z" fill="#C2C3CF"/>
        <path d="M4.52958 14.3876L2.14081 9.59839C1.91015 9.13592 1.34878 8.94733 0.885748 9.17673L0.261405 9.48602C0.0289367 9.6013 -0.0656569 9.88383 0.0503742 10.1159L2.86287 15.7409C2.97852 15.9729 3.25987 16.0652 3.49046 15.9515L4.10677 15.6461C4.57162 15.4159 4.76108 14.8518 4.52958 14.3876Z" fill="#C2C3CF"/>
        <path d="M15.6165 7.74061C15.2321 7.45936 14.6978 7.51561 14.379 7.86248L11.8165 11.0125C11.6384 11.2 11.3009 11.3125 11.1228 11.3125H8.93839C8.67586 11.3125 8.46964 11.1063 8.46964 10.8437C8.46964 10.5812 8.67586 10.375 8.93839 10.375C9.5662 10.375 10.2613 10.375 10.8134 10.375C11.329 10.375 11.7509 9.9531 11.7509 9.43748C11.7509 8.92186 11.329 8.49998 10.8134 8.49998C8.61195 8.49998 10.7118 8.49998 8.35714 8.49998C8.12351 8.49998 8.00701 8.35183 7.82276 8.19058C7.09748 7.53792 6.01186 7.22348 4.9128 7.47823C4.30255 7.61967 3.89102 7.8662 3.47364 8.19676L3.45974 8.18548L2.78174 8.78217L5.44623 14.125H6.23523H10.8134C11.6946 14.125 12.5384 13.7031 13.0634 13L15.8134 9.06248C16.1228 8.64995 16.0384 8.05001 15.6165 7.74061Z" fill="#C2C3CF"/>
    </g>
    <defs>
        <clipPath id="clip0">
            <rect width="16" height="16" fill="white"/>
        </clipPath>
    </defs>
</svg>