<svg width="16" height="16" viewBox="0 0 16 16" fill="none" xmlns="http://www.w3.org/2000/svg">
    <g clip-path="url(#clip0)">
        <path d="M0 10V2C0 1.44775 0.447693 1 1 1H4V11H1C0.447693 11 0 10.5523 0 10Z" fill="#C2C3CF"/>
        <path d="M14.1533 10.0001H11.1992C10.9409 10.0001 10.8115 10.1724 10.7681 10.2467C10.7246 10.3204 10.6367 10.5172 10.7617 10.7427L11.8032 12.6182C12.0317 13.0289 12.0552 13.5118 11.8682 13.9429C11.6812 14.3746 11.312 14.6876 10.8555 14.8013L10.1211 14.9849C9.94238 15.0299 9.75293 14.9727 9.62842 14.8345L5.64111 10.4049C5.22754 9.94441 5 9.35066 5 8.7325V3.5C5 2.12158 6.12158 1 7.5 1L12.4741 1.00049C13.5972 1.00049 14.5889 1.75684 14.8853 2.83936L15.9526 7.73787C15.9839 7.8741 16 8.01375 16 8.1534C16 9.17146 15.1714 10.0001 14.1533 10.0001L14.1533 10.0001Z" fill="#C2C3CF"/>
    </g>
    <defs>
        <clipPath id="clip0">
            <rect width="16" height="16" fill="white"/>
        </clipPath>
    </defs>
</svg>