<svg width="20" height="20" viewBox="0 0 20 20" fill="none" xmlns="http://www.w3.org/2000/svg">
    <path fill-rule="evenodd" clip-rule="evenodd" d="M9.57927 4.34101C9.81172 4.10855 10.1886 4.10855 10.4211 4.34101L13.9925 7.91243C14.2249 8.14489 14.2249 8.52177 13.9925 8.75423C13.76 8.98668 13.3831 8.98668 13.1507 8.75423L10.0002 5.6037L6.84963 8.75423C6.61718 8.98668 6.24029 8.98668 6.00784 8.75423C5.77538 8.52177 5.77538 8.14489 6.00784 7.91243L9.57927 4.34101Z" fill="#788991"/>
    <path fill-rule="evenodd" clip-rule="evenodd" d="M10.4207 15.4209C10.1883 15.6534 9.81139 15.6534 9.57894 15.4209L6.00751 11.8495C5.77505 11.617 5.77505 11.2401 6.00751 11.0077C6.23996 10.7752 6.61685 10.7752 6.8493 11.0077L9.99984 14.1582L13.1504 11.0077C13.3828 10.7752 13.7597 10.7752 13.9922 11.0077C14.2246 11.2401 14.2246 11.617 13.9922 11.8495L10.4207 15.4209Z" fill="#788991"/>
</svg>
