<svg width="16" height="20" viewBox="0 0 16 20" fill="none" xmlns="http://www.w3.org/2000/svg">
<path fill-rule="evenodd" clip-rule="evenodd" d="M3 0.833374C2.33696 0.833374 1.70107 1.09677 1.23223 1.56561C0.763392 2.03445 0.5 2.67033 0.5 3.33337L0.5 16.6667C0.5 17.3297 0.763392 17.9656 1.23223 18.4345C1.70107 18.9033 2.33696 19.1667 3 19.1667H13C13.663 19.1667 14.2989 18.9033 14.7678 18.4345C15.2366 17.9656 15.5 17.3297 15.5 16.6667V6.66671C15.5 6.44569 15.4122 6.23373 15.2559 6.07745L10.2559 1.07745C10.0996 0.921171 9.88768 0.833374 9.66667 0.833374L3 0.833374ZM2.41074 2.74412C2.56702 2.58784 2.77899 2.50004 3 2.50004L8.83333 2.50004V6.66671C8.83333 7.12694 9.20643 7.50004 9.66667 7.50004H13.8333V16.6667C13.8333 16.8877 13.7455 17.0997 13.5893 17.256C13.433 17.4122 13.221 17.5 13 17.5H3C2.77899 17.5 2.56702 17.4122 2.41074 17.256C2.25446 17.0997 2.16667 16.8877 2.16667 16.6667L2.16667 3.33337C2.16667 3.11236 2.25446 2.9004 2.41074 2.74412ZM12.6548 5.83337L10.5 3.67855V5.83337H12.6548ZM8 9.16671C8.46024 9.16671 8.83333 9.5398 8.83333 10V11.6667H10.5C10.9602 11.6667 11.3333 12.0398 11.3333 12.5C11.3333 12.9603 10.9602 13.3334 10.5 13.3334H8.83333V15C8.83333 15.4603 8.46024 15.8334 8 15.8334C7.53976 15.8334 7.16667 15.4603 7.16667 15V13.3334H5.5C5.03976 13.3334 4.66667 12.9603 4.66667 12.5C4.66667 12.0398 5.03976 11.6667 5.5 11.6667H7.16667V10C7.16667 9.5398 7.53976 9.16671 8 9.16671Z" fill="#5FADE6"/>
</svg>
