<svg width="16" height="16" viewBox="0 0 16 16" fill="none" xmlns="http://www.w3.org/2000/svg">
<path d="M8 15C9.10457 15 10 14.1046 10 13C10 12.8062 9.8313 12.6651 9.63751 12.6629L6.41586 12.6264C6.19581 12.6239 6 12.78 6 13C6 14.1046 6.89543 15 8 15Z" fill="#C2C3CF"/>
<path d="M3.33334 6C3.33334 3.42267 5.42267 1 8 1C10.5773 1 12.6667 3.42267 12.6667 6V7.64045C12.6667 8.50522 13.0365 9.32871 13.6828 9.90324C14.3764 10.5197 13.9403 11.6667 13.0124 11.6667H2.98765C2.0597 11.6667 1.62364 10.5197 2.3172 9.90324C2.96353 9.32871 3.33334 8.50522 3.33334 7.64045V6Z" fill="#C2C3CF"/>
</svg>
