<svg width="16" height="16" viewBox="0 0 16 16" fill="none" xmlns="http://www.w3.org/2000/svg">
    <path fill-rule="evenodd" clip-rule="evenodd" d="M14.6667 1.99992C14.6667 1.63173 14.3682 1.33325 14 1.33325C13.6319 1.33325 13.3334 1.63173 13.3334 1.99992V13.9999C13.3334 14.3681 13.6319 14.6666 14 14.6666C14.3682 14.6666 14.6667 14.3681 14.6667 13.9999V1.99992ZM10.6667 7.33325C10.6667 6.96506 10.3682 6.66659 10 6.66659C9.63185 6.66659 9.33337 6.96506 9.33337 7.33325V13.9999C9.33337 14.3681 9.63185 14.6666 10 14.6666C10.3682 14.6666 10.6667 14.3681 10.6667 13.9999V7.33325ZM6.00004 3.99992C6.36823 3.99992 6.66671 4.2984 6.66671 4.66659V13.9999C6.66671 14.3681 6.36823 14.6666 6.00004 14.6666C5.63185 14.6666 5.33337 14.3681 5.33337 13.9999V4.66659C5.33337 4.2984 5.63185 3.99992 6.00004 3.99992ZM2.66671 9.99992C2.66671 9.63173 2.36823 9.33325 2.00004 9.33325C1.63185 9.33325 1.33337 9.63173 1.33337 9.99992V13.9999C1.33337 14.3681 1.63185 14.6666 2.00004 14.6666C2.36823 14.6666 2.66671 14.3681 2.66671 13.9999V9.99992Z" fill="white"/>
</svg>