<svg width="14" height="16" viewBox="0 0 14 16" fill="none" xmlns="http://www.w3.org/2000/svg">
    <path fill-rule="evenodd" clip-rule="evenodd" d="M5.1953 2.19536C5.32033 2.07033 5.4899 2.0001 5.66671 2.0001H8.33337C8.51019 2.0001 8.67975 2.07033 8.80478 2.19536C8.9298 2.32038 9.00004 2.48995 9.00004 2.66676V3.33343H5.00004V2.66676C5.00004 2.48995 5.07028 2.32038 5.1953 2.19536ZM3.66671 3.33343V2.66676C3.66671 2.13633 3.87742 1.62762 4.25249 1.25255C4.62757 0.877477 5.13627 0.666763 5.66671 0.666763H8.33337C8.86381 0.666763 9.37251 0.877477 9.74759 1.25255C10.1227 1.62762 10.3334 2.13633 10.3334 2.66676V3.33343H11.6667H13C13.3682 3.33343 13.6667 3.63191 13.6667 4.0001C13.6667 4.36829 13.3682 4.66676 13 4.66676H12.3334V13.3334C12.3334 13.8639 12.1227 14.3726 11.7476 14.7476C11.3725 15.1227 10.8638 15.3334 10.3334 15.3334H3.66671C3.13627 15.3334 2.62757 15.1227 2.25249 14.7476C1.87742 14.3726 1.66671 13.8639 1.66671 13.3334V4.66676H1.00004C0.631851 4.66676 0.333374 4.36829 0.333374 4.0001C0.333374 3.63191 0.631851 3.33343 1.00004 3.33343H2.33337H3.66671ZM3.00004 4.66676V13.3334C3.00004 13.5102 3.07028 13.6798 3.1953 13.8048C3.32033 13.9299 3.4899 14.0001 3.66671 14.0001H10.3334C10.5102 14.0001 10.6798 13.9299 10.8048 13.8048C10.9298 13.6798 11 13.5102 11 13.3334V4.66676H3.00004ZM5.66671 6.66676C6.0349 6.66676 6.33337 6.96524 6.33337 7.33343V11.3334C6.33337 11.7016 6.0349 12.0001 5.66671 12.0001C5.29852 12.0001 5.00004 11.7016 5.00004 11.3334V7.33343C5.00004 6.96524 5.29852 6.66676 5.66671 6.66676ZM9.00004 11.3334V7.33343C9.00004 6.96524 8.70156 6.66676 8.33337 6.66676C7.96518 6.66676 7.66671 6.96524 7.66671 7.33343V11.3334C7.66671 11.7016 7.96518 12.0001 8.33337 12.0001C8.70156 12.0001 9.00004 11.7016 9.00004 11.3334Z" fill="white"/>
</svg>